<?xml version="1.0" encoding="UTF-8"?>
<svg id="Layer_2" data-name="Layer 2" xmlns="http://www.w3.org/2000/svg" xmlns:xlink="http://www.w3.org/1999/xlink" viewBox="0 0 32.06 10.5">
  <defs>
    <style>
      .cls-1 {
        clip-path: url(#clippath-4);
      }

      .cls-1, .cls-2, .cls-3, .cls-4, .cls-5, .cls-6, .cls-7, .cls-8, .cls-9, .cls-10, .cls-11, .cls-12, .cls-13, .cls-14, .cls-15, .cls-16, .cls-17, .cls-18, .cls-19, .cls-20, .cls-21, .cls-22, .cls-23, .cls-24, .cls-25, .cls-26, .cls-27, .cls-28, .cls-29, .cls-30, .cls-31, .cls-32, .cls-33, .cls-34, .cls-35, .cls-36, .cls-37, .cls-38, .cls-39, .cls-40, .cls-41 {
        fill: none;
      }

      .cls-42 {
        fill: url(#linear-gradient-2);
      }

      .cls-2 {
        clip-path: url(#clippath-2);
      }

      .cls-3 {
        clip-path: url(#clippath-6);
      }

      .cls-4 {
        clip-path: url(#clippath-9);
      }

      .cls-5 {
        clip-path: url(#clippath-12);
      }

      .cls-6 {
        clip-path: url(#clippath-32);
      }

      .cls-7 {
        clip-path: url(#clippath-13);
      }

      .cls-43 {
        fill: url(#linear-gradient-6);
      }

      .cls-8 {
        clip-path: url(#clippath-36);
      }

      .cls-9 {
        clip-path: url(#clippath-21);
      }

      .cls-10 {
        clip-path: url(#clippath-28);
      }

      .cls-44 {
        fill: url(#linear-gradient-11);
      }

      .cls-11 {
        clip-path: url(#clippath-7);
      }

      .cls-12 {
        clip-path: url(#clippath-18);
      }

      .cls-45 {
        fill: #f0f0ff;
      }

      .cls-13 {
        clip-path: url(#clippath-27);
      }

      .cls-14 {
        clip-path: url(#clippath-37);
      }

      .cls-15 {
        clip-path: url(#clippath-10);
      }

      .cls-16 {
        clip-path: url(#clippath-34);
      }

      .cls-46 {
        fill: url(#linear-gradient-10);
      }

      .cls-17 {
        clip-path: url(#clippath-35);
      }

      .cls-18 {
        clip-path: url(#clippath-22);
      }

      .cls-19 {
        clip-path: url(#clippath-5);
      }

      .cls-20 {
        clip-path: url(#clippath-24);
      }

      .cls-21 {
        clip-path: url(#clippath-26);
      }

      .cls-22 {
        clip-path: url(#clippath-31);
      }

      .cls-23 {
        clip-path: url(#clippath-16);
      }

      .cls-24 {
        clip-path: url(#clippath-15);
      }

      .cls-47 {
        fill: url(#linear-gradient-5);
      }

      .cls-25 {
        clip-path: url(#clippath-3);
      }

      .cls-26 {
        clip-path: url(#clippath-11);
      }

      .cls-27 {
        clip-path: url(#clippath-29);
      }

      .cls-28 {
        clip-path: url(#clippath-33);
      }

      .cls-29 {
        clip-path: url(#clippath-19);
      }

      .cls-31 {
        clip-path: url(#clippath-20);
      }

      .cls-32 {
        clip-path: url(#clippath-23);
      }

      .cls-33 {
        clip-path: url(#clippath-17);
      }

      .cls-48 {
        fill: url(#linear-gradient-7);
      }

      .cls-34 {
        clip-path: url(#clippath-38);
      }

      .cls-35 {
        clip-path: url(#clippath);
      }

      .cls-49 {
        fill: url(#linear-gradient-9);
      }

      .cls-50 {
        fill: url(#linear-gradient-3);
      }

      .cls-36 {
        clip-path: url(#clippath-1);
      }

      .cls-37 {
        clip-path: url(#clippath-8);
      }

      .cls-51 {
        fill: url(#linear-gradient);
      }

      .cls-38 {
        clip-path: url(#clippath-25);
      }

      .cls-39 {
        clip-path: url(#clippath-14);
      }

      .cls-52 {
        fill: url(#linear-gradient-4);
      }

      .cls-40 {
        clip-path: url(#clippath-30);
      }

      .cls-41 {
        stroke: #000;
        stroke-miterlimit: 10;
        stroke-width: .5px;
      }

      .cls-53 {
        fill: url(#linear-gradient-8);
      }

      .cls-54 {
        fill: url(#linear-gradient-12);
      }

      .cls-55 {
        fill: url(#linear-gradient-13);
      }
    </style>
    <clipPath id="clippath">
      <rect class="cls-30" x=".25" y=".25" width="9.66" height="10"/>
    </clipPath>
    <clipPath id="clippath-1">
      <path class="cls-30" d="m2.66,10.25C1.46,10.25.25,7.75.25,5.25S1.46.25,2.66.25h4.83c1.21,0,2.41,2.5,2.41,5s-1.21,5-2.41,5H2.66Zm9.75,0c-1.25,0-2.5-2.5-2.5-5S11.16.25,12.41.25h16.9c1.25,0,2.5,2.5,2.5,5s-1.25,5-2.5,5H12.41Z"/>
    </clipPath>
    <clipPath id="clippath-2">
      <path class="cls-30" d="m2.66,10.25C1.46,10.25.25,7.75.25,5.25S1.46.25,2.66.25h4.83c1.21,0,2.41,2.5,2.41,5s-1.21,5-2.41,5H2.66Zm9.75,0c-1.25,0-2.5-2.5-2.5-5S11.16.25,12.41.25h16.9c1.25,0,2.5,2.5,2.5,5s-1.25,5-2.5,5"/>
    </clipPath>
    <linearGradient id="linear-gradient" x1="-601.04" y1="172.81" x2="-600.04" y2="172.81" gradientTransform="translate(1674.25 -6000.17) rotate(-90) scale(10 -9.66)" gradientUnits="userSpaceOnUse">
      <stop offset="0" stop-color="#666"/>
      <stop offset="0" stop-color="#696969"/>
      <stop offset="0" stop-color="#6c6c6c"/>
      <stop offset=".01" stop-color="#6f6f6f"/>
      <stop offset=".02" stop-color="#727272"/>
      <stop offset=".02" stop-color="#757575"/>
      <stop offset=".02" stop-color="#787878"/>
      <stop offset=".03" stop-color="#7a7a7a"/>
      <stop offset=".03" stop-color="#7d7d7d"/>
      <stop offset=".04" stop-color="gray"/>
      <stop offset=".04" stop-color="#838383"/>
      <stop offset=".04" stop-color="#868686"/>
      <stop offset=".05" stop-color="#898989"/>
      <stop offset=".05" stop-color="#8c8c8c"/>
      <stop offset=".05" stop-color="#8f8f8f"/>
      <stop offset=".06" stop-color="#929292"/>
      <stop offset=".06" stop-color="#959595"/>
      <stop offset=".07" stop-color="#989898"/>
      <stop offset=".07" stop-color="#9b9b9b"/>
      <stop offset=".07" stop-color="#9e9e9e"/>
      <stop offset=".08" stop-color="#a0a0a0"/>
      <stop offset=".08" stop-color="#a3a3a3"/>
      <stop offset=".09" stop-color="#a6a6a6"/>
      <stop offset=".09" stop-color="#a9a9a9"/>
      <stop offset=".09" stop-color="#acacac"/>
      <stop offset=".1" stop-color="#afafaf"/>
      <stop offset=".1" stop-color="#b2b2b2"/>
      <stop offset=".11" stop-color="#b5b5b5"/>
      <stop offset=".11" stop-color="#b8b8b8"/>
      <stop offset=".11" stop-color="#bbb"/>
      <stop offset=".12" stop-color="#bebebe"/>
      <stop offset=".12" stop-color="#c1c1c1"/>
      <stop offset=".12" stop-color="#c3c3c3"/>
      <stop offset=".13" stop-color="#c3c3c3"/>
      <stop offset=".14" stop-color="#c2c2c2"/>
      <stop offset=".15" stop-color="#c1c1c1"/>
      <stop offset=".16" stop-color="silver"/>
      <stop offset=".16" stop-color="#bfbfbf"/>
      <stop offset=".17" stop-color="#bebebe"/>
      <stop offset=".18" stop-color="#bdbdbd"/>
      <stop offset=".19" stop-color="#bdbdbd"/>
      <stop offset=".2" stop-color="#bcbcbc"/>
      <stop offset=".2" stop-color="#bbb"/>
      <stop offset=".21" stop-color="#bababa"/>
      <stop offset=".22" stop-color="#b9b9b9"/>
      <stop offset=".23" stop-color="#b8b8b8"/>
      <stop offset=".23" stop-color="#b7b7b7"/>
      <stop offset=".24" stop-color="#b6b6b6"/>
      <stop offset=".25" stop-color="#b5b5b5"/>
      <stop offset=".26" stop-color="#b4b4b4"/>
      <stop offset=".27" stop-color="#b3b3b3"/>
      <stop offset=".27" stop-color="#b2b2b2"/>
      <stop offset=".28" stop-color="#b1b1b1"/>
      <stop offset=".29" stop-color="#b0b0b0"/>
      <stop offset=".3" stop-color="#b0b0b0"/>
      <stop offset=".3" stop-color="#afafaf"/>
      <stop offset=".31" stop-color="#aeaeae"/>
      <stop offset=".32" stop-color="#adadad"/>
      <stop offset=".33" stop-color="#acacac"/>
      <stop offset=".34" stop-color="#ababab"/>
      <stop offset=".34" stop-color="#aaa"/>
      <stop offset=".35" stop-color="#a9a9a9"/>
      <stop offset=".36" stop-color="#a8a8a8"/>
      <stop offset=".37" stop-color="#a7a7a7"/>
      <stop offset=".38" stop-color="#a6a6a6"/>
      <stop offset=".38" stop-color="#a5a5a5"/>
      <stop offset=".39" stop-color="#a4a4a4"/>
      <stop offset=".4" stop-color="#a3a3a3"/>
      <stop offset=".41" stop-color="#a2a2a2"/>
      <stop offset=".41" stop-color="#a2a2a2"/>
      <stop offset=".42" stop-color="#a1a1a1"/>
      <stop offset=".43" stop-color="#a0a0a0"/>
      <stop offset=".44" stop-color="#9f9f9f"/>
      <stop offset=".45" stop-color="#9e9e9e"/>
      <stop offset=".45" stop-color="#9d9d9d"/>
      <stop offset=".46" stop-color="#9c9c9c"/>
      <stop offset=".47" stop-color="#9b9b9b"/>
      <stop offset=".48" stop-color="#9a9a9a"/>
      <stop offset=".48" stop-color="#999"/>
      <stop offset=".49" stop-color="#989898"/>
      <stop offset=".5" stop-color="#979797"/>
      <stop offset=".51" stop-color="#969696"/>
      <stop offset=".52" stop-color="#959595"/>
      <stop offset=".52" stop-color="#959595"/>
      <stop offset=".53" stop-color="#949494"/>
      <stop offset=".54" stop-color="#939393"/>
      <stop offset=".55" stop-color="#929292"/>
      <stop offset=".55" stop-color="#919191"/>
      <stop offset=".56" stop-color="#909090"/>
      <stop offset=".57" stop-color="#8f8f8f"/>
      <stop offset=".58" stop-color="#8e8e8e"/>
      <stop offset=".59" stop-color="#8d8d8d"/>
      <stop offset=".59" stop-color="#8c8c8c"/>
      <stop offset=".6" stop-color="#8b8b8b"/>
      <stop offset=".61" stop-color="#8a8a8a"/>
      <stop offset=".62" stop-color="#898989"/>
      <stop offset=".62" stop-color="#888"/>
      <stop offset=".63" stop-color="#888"/>
      <stop offset=".64" stop-color="#878787"/>
      <stop offset=".65" stop-color="#868686"/>
      <stop offset=".66" stop-color="#868686"/>
      <stop offset=".66" stop-color="#858585"/>
      <stop offset=".67" stop-color="#848484"/>
      <stop offset=".68" stop-color="#838383"/>
      <stop offset=".69" stop-color="#838383"/>
      <stop offset=".7" stop-color="#828282"/>
      <stop offset=".7" stop-color="#818181"/>
      <stop offset=".71" stop-color="#818181"/>
      <stop offset=".72" stop-color="gray"/>
      <stop offset=".73" stop-color="#7f7f7f"/>
      <stop offset=".73" stop-color="#7e7e7e"/>
      <stop offset=".74" stop-color="#7e7e7e"/>
      <stop offset=".75" stop-color="#7d7d7d"/>
      <stop offset=".76" stop-color="#7c7c7c"/>
      <stop offset=".77" stop-color="#7c7c7c"/>
      <stop offset=".77" stop-color="#7b7b7b"/>
      <stop offset=".78" stop-color="#7a7a7a"/>
      <stop offset=".79" stop-color="#797979"/>
      <stop offset=".8" stop-color="#797979"/>
      <stop offset=".8" stop-color="#787878"/>
      <stop offset=".81" stop-color="#777"/>
      <stop offset=".82" stop-color="#777"/>
      <stop offset=".83" stop-color="#767676"/>
      <stop offset=".84" stop-color="#757575"/>
      <stop offset=".84" stop-color="#757575"/>
      <stop offset=".85" stop-color="#747474"/>
      <stop offset=".86" stop-color="#737373"/>
      <stop offset=".87" stop-color="#727272"/>
      <stop offset=".88" stop-color="#727272"/>
      <stop offset=".88" stop-color="#717171"/>
      <stop offset=".89" stop-color="#707070"/>
      <stop offset=".9" stop-color="#707070"/>
      <stop offset=".91" stop-color="#6f6f6f"/>
      <stop offset=".91" stop-color="#6e6e6e"/>
      <stop offset=".92" stop-color="#6d6d6d"/>
      <stop offset=".93" stop-color="#6d6d6d"/>
      <stop offset=".94" stop-color="#6c6c6c"/>
      <stop offset=".95" stop-color="#6b6b6b"/>
      <stop offset=".95" stop-color="#6b6b6b"/>
      <stop offset=".96" stop-color="#6a6a6a"/>
      <stop offset=".97" stop-color="#696969"/>
      <stop offset=".98" stop-color="#686868"/>
      <stop offset=".98" stop-color="#686868"/>
      <stop offset=".99" stop-color="#676767"/>
      <stop offset="1" stop-color="#666"/>
    </linearGradient>
    <clipPath id="clippath-3">
      <rect class="cls-30" x=".25" y=".25" width="1.29" height="10"/>
    </clipPath>
    <clipPath id="clippath-4">
      <path class="cls-30" d="m2.66,10.25C1.46,10.25.25,7.75.25,5.25S1.46.25,2.66.25h4.83c1.21,0,2.41,2.5,2.41,5s-1.21,5-2.41,5H2.66Zm9.75,0c-1.25,0-2.5-2.5-2.5-5S11.16.25,12.41.25h16.9c1.25,0,2.5,2.5,2.5,5s-1.25,5-2.5,5H12.41Z"/>
    </clipPath>
    <clipPath id="clippath-5">
      <path class="cls-30" d="m2.66,10.25C1.46,10.25.25,7.75.25,5.25S1.46.25,2.66.25h4.83c1.21,0,2.41,2.5,2.41,5s-1.21,5-2.41,5H2.66Zm9.75,0c-1.25,0-2.5-2.5-2.5-5S11.16.25,12.41.25h16.9c1.25,0,2.5,2.5,2.5,5s-1.25,5-2.5,5"/>
    </clipPath>
    <linearGradient id="linear-gradient-2" x1="-601.04" y1="98.46" x2="-600.04" y2="98.46" gradientTransform="translate(127.76 -6000.17) rotate(-90) scale(10 -1.29)" gradientUnits="userSpaceOnUse">
      <stop offset="0" stop-color="#bfbfbf"/>
      <stop offset="0" stop-color="#c1c1c1"/>
      <stop offset="0" stop-color="#c3c3c3"/>
      <stop offset=".01" stop-color="#c5c5c5"/>
      <stop offset=".02" stop-color="#c7c7c7"/>
      <stop offset=".02" stop-color="#c9c9c9"/>
      <stop offset=".02" stop-color="#cbcbcb"/>
      <stop offset=".03" stop-color="#cdcdcd"/>
      <stop offset=".03" stop-color="#cfcfcf"/>
      <stop offset=".04" stop-color="#d1d1d1"/>
      <stop offset=".04" stop-color="#d3d3d3"/>
      <stop offset=".04" stop-color="#d5d5d5"/>
      <stop offset=".05" stop-color="#d7d7d7"/>
      <stop offset=".05" stop-color="#d9d9d9"/>
      <stop offset=".05" stop-color="#dbdbdb"/>
      <stop offset=".06" stop-color="#ddd"/>
      <stop offset=".06" stop-color="#dfdfdf"/>
      <stop offset=".07" stop-color="#e1e1e1"/>
      <stop offset=".07" stop-color="#e3e3e3"/>
      <stop offset=".07" stop-color="#e5e5e5"/>
      <stop offset=".08" stop-color="#e7e7e7"/>
      <stop offset=".08" stop-color="#e9e9e9"/>
      <stop offset=".09" stop-color="#ebebeb"/>
      <stop offset=".09" stop-color="#ededed"/>
      <stop offset=".09" stop-color="#efefef"/>
      <stop offset=".1" stop-color="#f1f1f1"/>
      <stop offset=".1" stop-color="#f3f3f3"/>
      <stop offset=".11" stop-color="#f5f5f5"/>
      <stop offset=".11" stop-color="#f7f7f7"/>
      <stop offset=".11" stop-color="#f9f9f9"/>
      <stop offset=".12" stop-color="#fbfbfb"/>
      <stop offset=".12" stop-color="#fdfdfd"/>
      <stop offset=".12" stop-color="#fff"/>
      <stop offset=".25" stop-color="#fff"/>
      <stop offset=".5" stop-color="#fff"/>
      <stop offset=".62" stop-color="#fff"/>
      <stop offset=".63" stop-color="#fefefe"/>
      <stop offset=".63" stop-color="#fefefe"/>
      <stop offset=".64" stop-color="#fdfdfd"/>
      <stop offset=".64" stop-color="#fcfcfc"/>
      <stop offset=".64" stop-color="#fcfcfc"/>
      <stop offset=".65" stop-color="#fbfbfb"/>
      <stop offset=".65" stop-color="#fafafa"/>
      <stop offset=".66" stop-color="#fafafa"/>
      <stop offset=".66" stop-color="#f9f9f9"/>
      <stop offset=".66" stop-color="#f8f8f8"/>
      <stop offset=".67" stop-color="#f8f8f8"/>
      <stop offset=".67" stop-color="#f7f7f7"/>
      <stop offset=".68" stop-color="#f6f6f6"/>
      <stop offset=".68" stop-color="#f6f6f6"/>
      <stop offset=".68" stop-color="#f5f5f5"/>
      <stop offset=".69" stop-color="#f4f4f4"/>
      <stop offset=".69" stop-color="#f4f4f4"/>
      <stop offset=".7" stop-color="#f3f3f3"/>
      <stop offset=".7" stop-color="#f2f2f2"/>
      <stop offset=".7" stop-color="#f2f2f2"/>
      <stop offset=".71" stop-color="#f1f1f1"/>
      <stop offset=".71" stop-color="#f0f0f0"/>
      <stop offset=".71" stop-color="#f0f0f0"/>
      <stop offset=".72" stop-color="#efefef"/>
      <stop offset=".72" stop-color="#eee"/>
      <stop offset=".73" stop-color="#eee"/>
      <stop offset=".73" stop-color="#ededed"/>
      <stop offset=".73" stop-color="#ececec"/>
      <stop offset=".74" stop-color="#ececec"/>
      <stop offset=".74" stop-color="#ebebeb"/>
      <stop offset=".75" stop-color="#eaeaea"/>
      <stop offset=".75" stop-color="#eaeaea"/>
      <stop offset=".75" stop-color="#e9e9e9"/>
      <stop offset=".76" stop-color="#e8e8e8"/>
      <stop offset=".76" stop-color="#e8e8e8"/>
      <stop offset=".77" stop-color="#e7e7e7"/>
      <stop offset=".77" stop-color="#e6e6e6"/>
      <stop offset=".77" stop-color="#e6e6e6"/>
      <stop offset=".78" stop-color="#e5e5e5"/>
      <stop offset=".78" stop-color="#e4e4e4"/>
      <stop offset=".79" stop-color="#e4e4e4"/>
      <stop offset=".79" stop-color="#e3e3e3"/>
      <stop offset=".79" stop-color="#e2e2e2"/>
      <stop offset=".8" stop-color="#e2e2e2"/>
      <stop offset=".8" stop-color="#e1e1e1"/>
      <stop offset=".8" stop-color="#e0e0e0"/>
      <stop offset=".81" stop-color="#e0e0e0"/>
      <stop offset=".81" stop-color="#dfdfdf"/>
      <stop offset=".82" stop-color="#dedede"/>
      <stop offset=".82" stop-color="#dedede"/>
      <stop offset=".82" stop-color="#ddd"/>
      <stop offset=".83" stop-color="#dcdcdc"/>
      <stop offset=".83" stop-color="#dcdcdc"/>
      <stop offset=".84" stop-color="#dbdbdb"/>
      <stop offset=".84" stop-color="#dadada"/>
      <stop offset=".84" stop-color="#dadada"/>
      <stop offset=".85" stop-color="#d9d9d9"/>
      <stop offset=".85" stop-color="#d8d8d8"/>
      <stop offset=".86" stop-color="#d8d8d8"/>
      <stop offset=".86" stop-color="#d7d7d7"/>
      <stop offset=".86" stop-color="#d6d6d6"/>
      <stop offset=".87" stop-color="#d6d6d6"/>
      <stop offset=".87" stop-color="#d5d5d5"/>
      <stop offset=".88" stop-color="#d4d4d4"/>
      <stop offset=".88" stop-color="#d4d4d4"/>
      <stop offset=".88" stop-color="#d3d3d3"/>
      <stop offset=".89" stop-color="#d3d3d3"/>
      <stop offset=".89" stop-color="#d2d2d2"/>
      <stop offset=".89" stop-color="#d1d1d1"/>
      <stop offset=".9" stop-color="#d1d1d1"/>
      <stop offset=".9" stop-color="#d0d0d0"/>
      <stop offset=".91" stop-color="#cfcfcf"/>
      <stop offset=".91" stop-color="#cfcfcf"/>
      <stop offset=".91" stop-color="#cecece"/>
      <stop offset=".92" stop-color="#cdcdcd"/>
      <stop offset=".92" stop-color="#cdcdcd"/>
      <stop offset=".93" stop-color="#ccc"/>
      <stop offset=".93" stop-color="#cbcbcb"/>
      <stop offset=".93" stop-color="#cbcbcb"/>
      <stop offset=".94" stop-color="#cacaca"/>
      <stop offset=".94" stop-color="#c9c9c9"/>
      <stop offset=".95" stop-color="#c9c9c9"/>
      <stop offset=".95" stop-color="#c8c8c8"/>
      <stop offset=".95" stop-color="#c7c7c7"/>
      <stop offset=".96" stop-color="#c7c7c7"/>
      <stop offset=".96" stop-color="#c6c6c6"/>
      <stop offset=".96" stop-color="#c5c5c5"/>
      <stop offset=".97" stop-color="#c5c5c5"/>
      <stop offset=".97" stop-color="#c4c4c4"/>
      <stop offset=".98" stop-color="#c3c3c3"/>
      <stop offset=".98" stop-color="#c3c3c3"/>
      <stop offset=".98" stop-color="#c2c2c2"/>
      <stop offset=".99" stop-color="#c1c1c1"/>
      <stop offset=".99" stop-color="#c1c1c1"/>
      <stop offset="1" stop-color="silver"/>
      <stop offset="1" stop-color="#bfbfbf"/>
    </linearGradient>
    <clipPath id="clippath-6">
      <rect class="cls-30" x="1.54" y=".25" width="1.29" height="10"/>
    </clipPath>
    <clipPath id="clippath-7">
      <path class="cls-30" d="m2.66,10.25C1.46,10.25.25,7.75.25,5.25S1.46.25,2.66.25h4.83c1.21,0,2.41,2.5,2.41,5s-1.21,5-2.41,5H2.66Zm9.75,0c-1.25,0-2.5-2.5-2.5-5S11.16.25,12.41.25h16.9c1.25,0,2.5,2.5,2.5,5s-1.25,5-2.5,5H12.41Z"/>
    </clipPath>
    <clipPath id="clippath-8">
      <path class="cls-30" d="m2.66,10.25C1.46,10.25.25,7.75.25,5.25S1.46.25,2.66.25h4.83c1.21,0,2.41,2.5,2.41,5s-1.21,5-2.41,5H2.66Zm9.75,0c-1.25,0-2.5-2.5-2.5-5S11.16.25,12.41.25h16.9c1.25,0,2.5,2.5,2.5,5s-1.25,5-2.5,5"/>
    </clipPath>
    <linearGradient id="linear-gradient-3" y1="98.46" y2="98.46" gradientTransform="translate(129.05 -6000.17) rotate(-90) scale(10 -1.29)" xlink:href="#linear-gradient"/>
    <clipPath id="clippath-9">
      <rect class="cls-30" x="2.83" y=".25" width="6.44" height="10"/>
    </clipPath>
    <clipPath id="clippath-10">
      <path class="cls-30" d="m2.66,10.25C1.46,10.25.25,7.75.25,5.25S1.46.25,2.66.25h4.83c1.21,0,2.41,2.5,2.41,5s-1.21,5-2.41,5H2.66Zm9.75,0c-1.25,0-2.5-2.5-2.5-5S11.16.25,12.41.25h16.9c1.25,0,2.5,2.5,2.5,5s-1.25,5-2.5,5H12.41Z"/>
    </clipPath>
    <clipPath id="clippath-11">
      <path class="cls-30" d="m2.66,10.25C1.46,10.25.25,7.75.25,5.25S1.46.25,2.66.25h4.83c1.21,0,2.41,2.5,2.41,5s-1.21,5-2.41,5H2.66Zm9.75,0c-1.25,0-2.5-2.5-2.5-5S11.16.25,12.41.25h16.9c1.25,0,2.5,2.5,2.5,5s-1.25,5-2.5,5"/>
    </clipPath>
    <linearGradient id="linear-gradient-4" y1="167.09" y2="167.09" gradientTransform="translate(1082.52 -6000.17) rotate(-90) scale(10 -6.44)" xlink:href="#linear-gradient-2"/>
    <clipPath id="clippath-12">
      <rect class="cls-30" x="9.27" y=".25" width=".64" height="10"/>
    </clipPath>
    <clipPath id="clippath-13">
      <path class="cls-30" d="m2.66,10.25C1.46,10.25.25,7.75.25,5.25S1.46.25,2.66.25h4.83c1.21,0,2.41,2.5,2.41,5s-1.21,5-2.41,5H2.66Zm9.75,0c-1.25,0-2.5-2.5-2.5-5S11.16.25,12.41.25h16.9c1.25,0,2.5,2.5,2.5,5s-1.25,5-2.5,5H12.41Z"/>
    </clipPath>
    <clipPath id="clippath-14">
      <path class="cls-30" d="m2.66,10.25C1.46,10.25.25,7.75.25,5.25S1.46.25,2.66.25h4.83c1.21,0,2.41,2.5,2.41,5s-1.21,5-2.41,5H2.66Zm9.75,0c-1.25,0-2.5-2.5-2.5-5S11.16.25,12.41.25h16.9c1.25,0,2.5,2.5,2.5,5s-1.25,5-2.5,5"/>
    </clipPath>
    <linearGradient id="linear-gradient-5" x1="-601.04" y1="11.52" x2="-600.04" y2="11.52" gradientTransform="translate(16.96 -6000.17) rotate(-90) scale(10 -.64)" gradientUnits="userSpaceOnUse">
      <stop offset="0" stop-color="#bf9292"/>
      <stop offset="0" stop-color="#c19393"/>
      <stop offset="0" stop-color="#c39393"/>
      <stop offset=".01" stop-color="#c59494"/>
      <stop offset=".02" stop-color="#c79494"/>
      <stop offset=".02" stop-color="#c99595"/>
      <stop offset=".02" stop-color="#cb9696"/>
      <stop offset=".03" stop-color="#cd9696"/>
      <stop offset=".03" stop-color="#cf9797"/>
      <stop offset=".04" stop-color="#d19797"/>
      <stop offset=".04" stop-color="#d39898"/>
      <stop offset=".04" stop-color="#d59898"/>
      <stop offset=".05" stop-color="#d79999"/>
      <stop offset=".05" stop-color="#d99999"/>
      <stop offset=".05" stop-color="#db9a9a"/>
      <stop offset=".06" stop-color="#dd9a9a"/>
      <stop offset=".06" stop-color="#df9b9b"/>
      <stop offset=".07" stop-color="#e19b9b"/>
      <stop offset=".07" stop-color="#e39c9c"/>
      <stop offset=".07" stop-color="#e59c9c"/>
      <stop offset=".08" stop-color="#e79d9d"/>
      <stop offset=".08" stop-color="#e99d9d"/>
      <stop offset=".09" stop-color="#eb9e9e"/>
      <stop offset=".09" stop-color="#ed9e9e"/>
      <stop offset=".09" stop-color="#ef9f9f"/>
      <stop offset=".1" stop-color="#f1a0a0"/>
      <stop offset=".1" stop-color="#f3a0a0"/>
      <stop offset=".11" stop-color="#f5a1a1"/>
      <stop offset=".11" stop-color="#f7a1a1"/>
      <stop offset=".11" stop-color="#f9a2a2"/>
      <stop offset=".12" stop-color="#fba2a2"/>
      <stop offset=".12" stop-color="#fda3a3"/>
      <stop offset=".12" stop-color="#ffa3a3"/>
      <stop offset=".14" stop-color="#ffa4a4"/>
      <stop offset=".16" stop-color="#ffa5a5"/>
      <stop offset=".17" stop-color="#ffa5a5"/>
      <stop offset=".19" stop-color="#ffa6a6"/>
      <stop offset=".2" stop-color="#ffa7a7"/>
      <stop offset=".22" stop-color="#ffa8a8"/>
      <stop offset=".23" stop-color="#ffa9a9"/>
      <stop offset=".25" stop-color="#faa"/>
      <stop offset=".27" stop-color="#ffabab"/>
      <stop offset=".28" stop-color="#ffacac"/>
      <stop offset=".3" stop-color="#ffadad"/>
      <stop offset=".31" stop-color="#ffaeae"/>
      <stop offset=".33" stop-color="#ffaeae"/>
      <stop offset=".34" stop-color="#ffafaf"/>
      <stop offset=".36" stop-color="#ffb0b0"/>
      <stop offset=".38" stop-color="#ffb1b1"/>
      <stop offset=".39" stop-color="#ffb2b2"/>
      <stop offset=".41" stop-color="#ffb3b3"/>
      <stop offset=".42" stop-color="#ffb4b4"/>
      <stop offset=".44" stop-color="#ffb5b5"/>
      <stop offset=".45" stop-color="#ffb6b6"/>
      <stop offset=".47" stop-color="#ffb7b7"/>
      <stop offset=".48" stop-color="#ffb7b7"/>
      <stop offset=".5" stop-color="#ffb8b8"/>
      <stop offset=".52" stop-color="#ffb9b9"/>
      <stop offset=".53" stop-color="#ffbaba"/>
      <stop offset=".55" stop-color="#fbb"/>
      <stop offset=".56" stop-color="#ffbcbc"/>
      <stop offset=".58" stop-color="#ffbdbd"/>
      <stop offset=".59" stop-color="#ffbebe"/>
      <stop offset=".61" stop-color="#ffbfbf"/>
      <stop offset=".62" stop-color="#ffc0c0"/>
      <stop offset=".63" stop-color="#fec0c0"/>
      <stop offset=".63" stop-color="#febfbf"/>
      <stop offset=".64" stop-color="#fdbfbf"/>
      <stop offset=".64" stop-color="#fcbebe"/>
      <stop offset=".64" stop-color="#fcbebe"/>
      <stop offset=".65" stop-color="#fbbdbd"/>
      <stop offset=".65" stop-color="#fabdbd"/>
      <stop offset=".66" stop-color="#fabcbc"/>
      <stop offset=".66" stop-color="#f9bcbc"/>
      <stop offset=".66" stop-color="#f8bbbb"/>
      <stop offset=".67" stop-color="#f8bbbb"/>
      <stop offset=".67" stop-color="#f7baba"/>
      <stop offset=".68" stop-color="#f6baba"/>
      <stop offset=".68" stop-color="#f6b9b9"/>
      <stop offset=".68" stop-color="#f5b9b9"/>
      <stop offset=".69" stop-color="#f4b8b8"/>
      <stop offset=".69" stop-color="#f4b8b8"/>
      <stop offset=".7" stop-color="#f3b7b7"/>
      <stop offset=".7" stop-color="#f2b7b7"/>
      <stop offset=".7" stop-color="#f2b6b6"/>
      <stop offset=".71" stop-color="#f1b6b6"/>
      <stop offset=".71" stop-color="#f0b6b6"/>
      <stop offset=".71" stop-color="#f0b5b5"/>
      <stop offset=".72" stop-color="#efb5b5"/>
      <stop offset=".72" stop-color="#eeb4b4"/>
      <stop offset=".73" stop-color="#eeb4b4"/>
      <stop offset=".73" stop-color="#edb3b3"/>
      <stop offset=".73" stop-color="#ecb3b3"/>
      <stop offset=".74" stop-color="#ecb2b2"/>
      <stop offset=".74" stop-color="#ebb2b2"/>
      <stop offset=".75" stop-color="#eab1b1"/>
      <stop offset=".75" stop-color="#eab1b1"/>
      <stop offset=".75" stop-color="#e9b0b0"/>
      <stop offset=".76" stop-color="#e8b0b0"/>
      <stop offset=".76" stop-color="#e8afaf"/>
      <stop offset=".77" stop-color="#e7afaf"/>
      <stop offset=".77" stop-color="#e6aeae"/>
      <stop offset=".77" stop-color="#e6aeae"/>
      <stop offset=".78" stop-color="#e5adad"/>
      <stop offset=".78" stop-color="#e4adad"/>
      <stop offset=".79" stop-color="#e4adad"/>
      <stop offset=".79" stop-color="#e3acac"/>
      <stop offset=".79" stop-color="#e2acac"/>
      <stop offset=".8" stop-color="#e2abab"/>
      <stop offset=".8" stop-color="#e1abab"/>
      <stop offset=".8" stop-color="#e0aaaa"/>
      <stop offset=".81" stop-color="#e0aaaa"/>
      <stop offset=".81" stop-color="#dfa9a9"/>
      <stop offset=".82" stop-color="#dea9a9"/>
      <stop offset=".82" stop-color="#dea8a8"/>
      <stop offset=".82" stop-color="#dda8a8"/>
      <stop offset=".83" stop-color="#dca7a7"/>
      <stop offset=".83" stop-color="#dca7a7"/>
      <stop offset=".84" stop-color="#dba6a6"/>
      <stop offset=".84" stop-color="#daa6a6"/>
      <stop offset=".84" stop-color="#daa5a5"/>
      <stop offset=".85" stop-color="#d9a5a5"/>
      <stop offset=".85" stop-color="#d8a4a4"/>
      <stop offset=".86" stop-color="#d8a4a4"/>
      <stop offset=".86" stop-color="#d7a3a3"/>
      <stop offset=".86" stop-color="#d6a3a3"/>
      <stop offset=".87" stop-color="#d6a3a3"/>
      <stop offset=".87" stop-color="#d5a2a2"/>
      <stop offset=".88" stop-color="#d4a2a2"/>
      <stop offset=".88" stop-color="#d4a1a1"/>
      <stop offset=".88" stop-color="#d3a1a1"/>
      <stop offset=".89" stop-color="#d3a0a0"/>
      <stop offset=".89" stop-color="#d2a0a0"/>
      <stop offset=".89" stop-color="#d19f9f"/>
      <stop offset=".9" stop-color="#d19f9f"/>
      <stop offset=".9" stop-color="#d09e9e"/>
      <stop offset=".91" stop-color="#cf9e9e"/>
      <stop offset=".91" stop-color="#cf9d9d"/>
      <stop offset=".91" stop-color="#ce9d9d"/>
      <stop offset=".92" stop-color="#cd9c9c"/>
      <stop offset=".92" stop-color="#cd9c9c"/>
      <stop offset=".93" stop-color="#cc9b9b"/>
      <stop offset=".93" stop-color="#cb9b9b"/>
      <stop offset=".93" stop-color="#cb9a9a"/>
      <stop offset=".94" stop-color="#ca9a9a"/>
      <stop offset=".94" stop-color="#c99999"/>
      <stop offset=".95" stop-color="#c99999"/>
      <stop offset=".95" stop-color="#c89999"/>
      <stop offset=".95" stop-color="#c79898"/>
      <stop offset=".96" stop-color="#c79898"/>
      <stop offset=".96" stop-color="#c69797"/>
      <stop offset=".96" stop-color="#c59797"/>
      <stop offset=".97" stop-color="#c59696"/>
      <stop offset=".97" stop-color="#c49696"/>
      <stop offset=".98" stop-color="#c39595"/>
      <stop offset=".98" stop-color="#c39595"/>
      <stop offset=".98" stop-color="#c29494"/>
      <stop offset=".99" stop-color="#c19494"/>
      <stop offset=".99" stop-color="#c19393"/>
      <stop offset="1" stop-color="#c09393"/>
      <stop offset="1" stop-color="#bf9292"/>
    </linearGradient>
    <clipPath id="clippath-15">
      <rect class="cls-30" x="9.91" y=".25" width="21.9" height="10"/>
    </clipPath>
    <clipPath id="clippath-16">
      <path class="cls-30" d="m2.66,10.25C1.46,10.25.25,7.75.25,5.25S1.46.25,2.66.25h4.83c1.21,0,2.41,2.5,2.41,5s-1.21,5-2.41,5H2.66Zm9.75,0c-1.25,0-2.5-2.5-2.5-5S11.16.25,12.41.25h16.9c1.25,0,2.5,2.5,2.5,5s-1.25,5-2.5,5H12.41Z"/>
    </clipPath>
    <clipPath id="clippath-17">
      <path class="cls-30" d="m2.66,10.25C1.46,10.25.25,7.75.25,5.25S1.46.25,2.66.25h4.83c1.21,0,2.41,2.5,2.41,5s-1.21,5-2.41,5H2.66Zm9.75,0c-1.25,0-2.5-2.5-2.5-5S11.16.25,12.41.25h16.9c1.25,0,2.5,2.5,2.5,5s-1.25,5-2.5,5"/>
    </clipPath>
    <linearGradient id="linear-gradient-6" y1="179.21" y2="179.21" gradientTransform="translate(3946.12 -6000.17) rotate(-90) scale(10 -21.9)" xlink:href="#linear-gradient"/>
    <clipPath id="clippath-18">
      <rect class="cls-30" x="9.91" y=".25" width="1.29" height="10"/>
    </clipPath>
    <clipPath id="clippath-19">
      <path class="cls-30" d="m2.66,10.25C1.46,10.25.25,7.75.25,5.25S1.46.25,2.66.25h4.83c1.21,0,2.41,2.5,2.41,5s-1.21,5-2.41,5H2.66Zm9.75,0c-1.25,0-2.5-2.5-2.5-5S11.16.25,12.41.25h16.9c1.25,0,2.5,2.5,2.5,5s-1.25,5-2.5,5H12.41Z"/>
    </clipPath>
    <clipPath id="clippath-20">
      <path class="cls-30" d="m2.66,10.25C1.46,10.25.25,7.75.25,5.25S1.46.25,2.66.25h4.83c1.21,0,2.41,2.5,2.41,5s-1.21,5-2.41,5H2.66Zm9.75,0c-1.25,0-2.5-2.5-2.5-5S11.16.25,12.41.25h16.9c1.25,0,2.5,2.5,2.5,5s-1.25,5-2.5,5"/>
    </clipPath>
    <linearGradient id="linear-gradient-7" y1="98.46" y2="98.46" gradientTransform="translate(137.42 -6000.17) rotate(-90) scale(10 -1.29)" xlink:href="#linear-gradient-5"/>
    <clipPath id="clippath-21">
      <rect class="cls-30" x="11.2" y=".25" width="1.13" height="10"/>
    </clipPath>
    <clipPath id="clippath-22">
      <path class="cls-30" d="m2.66,10.25C1.46,10.25.25,7.75.25,5.25S1.46.25,2.66.25h4.83c1.21,0,2.41,2.5,2.41,5s-1.21,5-2.41,5H2.66Zm9.75,0c-1.25,0-2.5-2.5-2.5-5S11.16.25,12.41.25h16.9c1.25,0,2.5,2.5,2.5,5s-1.25,5-2.5,5H12.41Z"/>
    </clipPath>
    <clipPath id="clippath-23">
      <path class="cls-30" d="m2.66,10.25C1.46,10.25.25,7.75.25,5.25S1.46.25,2.66.25h4.83c1.21,0,2.41,2.5,2.41,5s-1.21,5-2.41,5H2.66Zm9.75,0c-1.25,0-2.5-2.5-2.5-5S11.16.25,12.41.25h16.9c1.25,0,2.5,2.5,2.5,5s-1.25,5-2.5,5"/>
    </clipPath>
    <linearGradient id="linear-gradient-8" y1="86.68" y2="86.68" gradientTransform="translate(109.95 -6000.17) rotate(-90) scale(10 -1.13)" xlink:href="#linear-gradient-2"/>
    <clipPath id="clippath-24">
      <rect class="cls-30" x="12.33" y=".25" width="2.73" height="10"/>
    </clipPath>
    <clipPath id="clippath-25">
      <path class="cls-30" d="m2.66,10.25C1.46,10.25.25,7.75.25,5.25S1.46.25,2.66.25h4.83c1.21,0,2.41,2.5,2.41,5s-1.21,5-2.41,5H2.66Zm9.75,0c-1.25,0-2.5-2.5-2.5-5S11.16.25,12.41.25h16.9c1.25,0,2.5,2.5,2.5,5s-1.25,5-2.5,5H12.41Z"/>
    </clipPath>
    <clipPath id="clippath-26">
      <path class="cls-30" d="m2.66,10.25C1.46,10.25.25,7.75.25,5.25S1.46.25,2.66.25h4.83c1.21,0,2.41,2.5,2.41,5s-1.21,5-2.41,5H2.66Zm9.75,0c-1.25,0-2.5-2.5-2.5-5S11.16.25,12.41.25h16.9c1.25,0,2.5,2.5,2.5,5s-1.25,5-2.5,5"/>
    </clipPath>
    <linearGradient id="linear-gradient-9" y1="143.8" y2="143.8" gradientTransform="translate(406.64 -6000.17) rotate(-90) scale(10 -2.73)" xlink:href="#linear-gradient"/>
    <clipPath id="clippath-27">
      <rect class="cls-30" x="15.06" y=".25" width="1.45" height="10"/>
    </clipPath>
    <clipPath id="clippath-28">
      <path class="cls-30" d="m2.66,10.25C1.46,10.25.25,7.75.25,5.25S1.46.25,2.66.25h4.83c1.21,0,2.41,2.5,2.41,5s-1.21,5-2.41,5H2.66Zm9.75,0c-1.25,0-2.5-2.5-2.5-5S11.16.25,12.41.25h16.9c1.25,0,2.5,2.5,2.5,5s-1.25,5-2.5,5H12.41Z"/>
    </clipPath>
    <clipPath id="clippath-29">
      <path class="cls-30" d="m2.66,10.25C1.46,10.25.25,7.75.25,5.25S1.46.25,2.66.25h4.83c1.21,0,2.41,2.5,2.41,5s-1.21,5-2.41,5H2.66Zm9.75,0c-1.25,0-2.5-2.5-2.5-5S11.16.25,12.41.25h16.9c1.25,0,2.5,2.5,2.5,5s-1.25,5-2.5,5"/>
    </clipPath>
    <linearGradient id="linear-gradient-10" y1="108.17" y2="108.17" gradientTransform="translate(172.93 -6000.17) rotate(-90) scale(10 -1.45)" xlink:href="#linear-gradient-2"/>
    <clipPath id="clippath-30">
      <rect class="cls-30" x="16.52" y=".25" width="2.41" height="10"/>
    </clipPath>
    <clipPath id="clippath-31">
      <path class="cls-30" d="m2.66,10.25C1.46,10.25.25,7.75.25,5.25S1.46.25,2.66.25h4.83c1.21,0,2.41,2.5,2.41,5s-1.21,5-2.41,5H2.66Zm9.75,0c-1.25,0-2.5-2.5-2.5-5S11.16.25,12.41.25h16.9c1.25,0,2.5,2.5,2.5,5s-1.25,5-2.5,5H12.41Z"/>
    </clipPath>
    <clipPath id="clippath-32">
      <path class="cls-30" d="m2.66,10.25C1.46,10.25.25,7.75.25,5.25S1.46.25,2.66.25h4.83c1.21,0,2.41,2.5,2.41,5s-1.21,5-2.41,5H2.66Zm9.75,0c-1.25,0-2.5-2.5-2.5-5S11.16.25,12.41.25h16.9c1.25,0,2.5,2.5,2.5,5s-1.25,5-2.5,5"/>
    </clipPath>
    <linearGradient id="linear-gradient-11" y1="138.44" y2="138.44" gradientTransform="translate(351.72 -6000.17) rotate(-90) scale(10 -2.41)" xlink:href="#linear-gradient"/>
    <clipPath id="clippath-33">
      <rect class="cls-30" x="18.93" y=".25" width="1.61" height="10"/>
    </clipPath>
    <clipPath id="clippath-34">
      <path class="cls-30" d="m2.66,10.25C1.46,10.25.25,7.75.25,5.25S1.46.25,2.66.25h4.83c1.21,0,2.41,2.5,2.41,5s-1.21,5-2.41,5H2.66Zm9.75,0c-1.25,0-2.5-2.5-2.5-5S11.16.25,12.41.25h16.9c1.25,0,2.5,2.5,2.5,5s-1.25,5-2.5,5H12.41Z"/>
    </clipPath>
    <clipPath id="clippath-35">
      <path class="cls-30" d="m2.66,10.25C1.46,10.25.25,7.75.25,5.25S1.46.25,2.66.25h4.83c1.21,0,2.41,2.5,2.41,5s-1.21,5-2.41,5H2.66Zm9.75,0c-1.25,0-2.5-2.5-2.5-5S11.16.25,12.41.25h16.9c1.25,0,2.5,2.5,2.5,5s-1.25,5-2.5,5"/>
    </clipPath>
    <linearGradient id="linear-gradient-12" y1="115.53" y2="115.53" gradientTransform="translate(205.55 -6000.17) rotate(-90) scale(10 -1.61)" xlink:href="#linear-gradient-2"/>
    <clipPath id="clippath-36">
      <rect class="cls-30" x="20.54" y=".25" width="11.28" height="10"/>
    </clipPath>
    <clipPath id="clippath-37">
      <path class="cls-30" d="m2.66,10.25C1.46,10.25.25,7.75.25,5.25S1.46.25,2.66.25h4.83c1.21,0,2.41,2.5,2.41,5s-1.21,5-2.41,5H2.66Zm9.75,0c-1.25,0-2.5-2.5-2.5-5S11.16.25,12.41.25h16.9c1.25,0,2.5,2.5,2.5,5s-1.25,5-2.5,5H12.41Z"/>
    </clipPath>
    <clipPath id="clippath-38">
      <path class="cls-30" d="m2.66,10.25C1.46,10.25.25,7.75.25,5.25S1.46.25,2.66.25h4.83c1.21,0,2.41,2.5,2.41,5s-1.21,5-2.41,5H2.66Zm9.75,0c-1.25,0-2.5-2.5-2.5-5S11.16.25,12.41.25h16.9c1.25,0,2.5,2.5,2.5,5s-1.25,5-2.5,5"/>
    </clipPath>
    <linearGradient id="linear-gradient-13" x1="-601.04" y1="174.45" x2="-600.04" y2="174.45" gradientTransform="translate(1993.29 -6000.17) rotate(-90) scale(10 -11.28)" gradientUnits="userSpaceOnUse">
      <stop offset="0" stop-color="#8383bf"/>
      <stop offset="0" stop-color="#8383c1"/>
      <stop offset="0" stop-color="#8484c3"/>
      <stop offset=".01" stop-color="#8484c5"/>
      <stop offset=".02" stop-color="#8484c7"/>
      <stop offset=".02" stop-color="#8585c9"/>
      <stop offset=".02" stop-color="#8585cb"/>
      <stop offset=".03" stop-color="#8686cd"/>
      <stop offset=".03" stop-color="#8686cf"/>
      <stop offset=".04" stop-color="#8787d1"/>
      <stop offset=".04" stop-color="#8787d3"/>
      <stop offset=".04" stop-color="#8787d5"/>
      <stop offset=".05" stop-color="#8888d7"/>
      <stop offset=".05" stop-color="#8888d9"/>
      <stop offset=".05" stop-color="#8989db"/>
      <stop offset=".06" stop-color="#8989dd"/>
      <stop offset=".06" stop-color="#8a8adf"/>
      <stop offset=".07" stop-color="#8a8ae1"/>
      <stop offset=".07" stop-color="#8a8ae3"/>
      <stop offset=".07" stop-color="#8b8be5"/>
      <stop offset=".08" stop-color="#8b8be7"/>
      <stop offset=".08" stop-color="#8c8ce9"/>
      <stop offset=".09" stop-color="#8c8ceb"/>
      <stop offset=".09" stop-color="#8d8ded"/>
      <stop offset=".09" stop-color="#8d8def"/>
      <stop offset=".1" stop-color="#8d8df1"/>
      <stop offset=".1" stop-color="#8e8ef3"/>
      <stop offset=".11" stop-color="#8e8ef5"/>
      <stop offset=".11" stop-color="#8f8ff7"/>
      <stop offset=".11" stop-color="#8f8ff9"/>
      <stop offset=".12" stop-color="#9090fb"/>
      <stop offset=".12" stop-color="#9090fd"/>
      <stop offset=".12" stop-color="#9090ff"/>
      <stop offset=".14" stop-color="#9191ff"/>
      <stop offset=".16" stop-color="#9292ff"/>
      <stop offset=".17" stop-color="#9292ff"/>
      <stop offset=".19" stop-color="#9393ff"/>
      <stop offset=".2" stop-color="#9494ff"/>
      <stop offset=".22" stop-color="#9595ff"/>
      <stop offset=".23" stop-color="#9696ff"/>
      <stop offset=".25" stop-color="#9696ff"/>
      <stop offset=".27" stop-color="#9797ff"/>
      <stop offset=".28" stop-color="#9898ff"/>
      <stop offset=".3" stop-color="#99f"/>
      <stop offset=".31" stop-color="#9a9aff"/>
      <stop offset=".33" stop-color="#9a9aff"/>
      <stop offset=".34" stop-color="#9b9bff"/>
      <stop offset=".36" stop-color="#9c9cff"/>
      <stop offset=".38" stop-color="#9d9dff"/>
      <stop offset=".39" stop-color="#9e9eff"/>
      <stop offset=".41" stop-color="#9e9eff"/>
      <stop offset=".42" stop-color="#9f9fff"/>
      <stop offset=".44" stop-color="#a0a0ff"/>
      <stop offset=".45" stop-color="#a1a1ff"/>
      <stop offset=".47" stop-color="#a2a2ff"/>
      <stop offset=".48" stop-color="#a2a2ff"/>
      <stop offset=".5" stop-color="#a3a3ff"/>
      <stop offset=".52" stop-color="#a4a4ff"/>
      <stop offset=".53" stop-color="#a5a5ff"/>
      <stop offset=".55" stop-color="#a6a6ff"/>
      <stop offset=".56" stop-color="#a6a6ff"/>
      <stop offset=".58" stop-color="#a7a7ff"/>
      <stop offset=".59" stop-color="#a8a8ff"/>
      <stop offset=".61" stop-color="#a9a9ff"/>
      <stop offset=".62" stop-color="#aaf"/>
      <stop offset=".63" stop-color="#aaaafe"/>
      <stop offset=".63" stop-color="#a9a9fe"/>
      <stop offset=".64" stop-color="#a9a9fd"/>
      <stop offset=".64" stop-color="#a8a8fc"/>
      <stop offset=".64" stop-color="#a8a8fc"/>
      <stop offset=".65" stop-color="#a8a8fb"/>
      <stop offset=".65" stop-color="#a7a7fa"/>
      <stop offset=".66" stop-color="#a7a7fa"/>
      <stop offset=".66" stop-color="#a6a6f9"/>
      <stop offset=".66" stop-color="#a6a6f8"/>
      <stop offset=".67" stop-color="#a5a5f8"/>
      <stop offset=".67" stop-color="#a5a5f7"/>
      <stop offset=".68" stop-color="#a5a5f6"/>
      <stop offset=".68" stop-color="#a4a4f6"/>
      <stop offset=".68" stop-color="#a4a4f5"/>
      <stop offset=".69" stop-color="#a3a3f4"/>
      <stop offset=".69" stop-color="#a3a3f4"/>
      <stop offset=".7" stop-color="#a3a3f3"/>
      <stop offset=".7" stop-color="#a2a2f2"/>
      <stop offset=".7" stop-color="#a2a2f2"/>
      <stop offset=".71" stop-color="#a1a1f1"/>
      <stop offset=".71" stop-color="#a1a1f0"/>
      <stop offset=".71" stop-color="#a1a1f0"/>
      <stop offset=".72" stop-color="#a0a0ef"/>
      <stop offset=".72" stop-color="#a0a0ee"/>
      <stop offset=".73" stop-color="#9f9fee"/>
      <stop offset=".73" stop-color="#9f9fed"/>
      <stop offset=".73" stop-color="#9f9fec"/>
      <stop offset=".74" stop-color="#9e9eec"/>
      <stop offset=".74" stop-color="#9e9eeb"/>
      <stop offset=".75" stop-color="#9d9dea"/>
      <stop offset=".75" stop-color="#9d9dea"/>
      <stop offset=".75" stop-color="#9c9ce9"/>
      <stop offset=".76" stop-color="#9c9ce8"/>
      <stop offset=".76" stop-color="#9c9ce8"/>
      <stop offset=".77" stop-color="#9b9be7"/>
      <stop offset=".77" stop-color="#9b9be6"/>
      <stop offset=".77" stop-color="#9a9ae6"/>
      <stop offset=".78" stop-color="#9a9ae5"/>
      <stop offset=".78" stop-color="#9a9ae4"/>
      <stop offset=".79" stop-color="#9999e4"/>
      <stop offset=".79" stop-color="#9999e3"/>
      <stop offset=".79" stop-color="#9898e2"/>
      <stop offset=".8" stop-color="#9898e2"/>
      <stop offset=".8" stop-color="#9898e1"/>
      <stop offset=".8" stop-color="#9797e0"/>
      <stop offset=".81" stop-color="#9797e0"/>
      <stop offset=".81" stop-color="#9696df"/>
      <stop offset=".82" stop-color="#9696de"/>
      <stop offset=".82" stop-color="#9696de"/>
      <stop offset=".82" stop-color="#9595dd"/>
      <stop offset=".83" stop-color="#9595dc"/>
      <stop offset=".83" stop-color="#9494dc"/>
      <stop offset=".84" stop-color="#9494db"/>
      <stop offset=".84" stop-color="#9393da"/>
      <stop offset=".84" stop-color="#9393da"/>
      <stop offset=".85" stop-color="#9393d9"/>
      <stop offset=".85" stop-color="#9292d8"/>
      <stop offset=".86" stop-color="#9292d8"/>
      <stop offset=".86" stop-color="#9191d7"/>
      <stop offset=".86" stop-color="#9191d6"/>
      <stop offset=".87" stop-color="#9191d6"/>
      <stop offset=".87" stop-color="#9090d5"/>
      <stop offset=".88" stop-color="#9090d4"/>
      <stop offset=".88" stop-color="#8f8fd4"/>
      <stop offset=".88" stop-color="#8f8fd3"/>
      <stop offset=".89" stop-color="#8f8fd3"/>
      <stop offset=".89" stop-color="#8e8ed2"/>
      <stop offset=".89" stop-color="#8e8ed1"/>
      <stop offset=".9" stop-color="#8d8dd1"/>
      <stop offset=".9" stop-color="#8d8dd0"/>
      <stop offset=".91" stop-color="#8d8dcf"/>
      <stop offset=".91" stop-color="#8c8ccf"/>
      <stop offset=".91" stop-color="#8c8cce"/>
      <stop offset=".92" stop-color="#8b8bcd"/>
      <stop offset=".92" stop-color="#8b8bcd"/>
      <stop offset=".93" stop-color="#8a8acc"/>
      <stop offset=".93" stop-color="#8a8acb"/>
      <stop offset=".93" stop-color="#8a8acb"/>
      <stop offset=".94" stop-color="#8989ca"/>
      <stop offset=".94" stop-color="#8989c9"/>
      <stop offset=".95" stop-color="#8888c9"/>
      <stop offset=".95" stop-color="#8888c8"/>
      <stop offset=".95" stop-color="#8888c7"/>
      <stop offset=".96" stop-color="#8787c7"/>
      <stop offset=".96" stop-color="#8787c6"/>
      <stop offset=".96" stop-color="#8686c5"/>
      <stop offset=".97" stop-color="#8686c5"/>
      <stop offset=".97" stop-color="#8686c4"/>
      <stop offset=".98" stop-color="#8585c3"/>
      <stop offset=".98" stop-color="#8585c3"/>
      <stop offset=".98" stop-color="#8484c2"/>
      <stop offset=".99" stop-color="#8484c1"/>
      <stop offset=".99" stop-color="#8484c1"/>
      <stop offset="1" stop-color="#8383c0"/>
      <stop offset="1" stop-color="#8383bf"/>
    </linearGradient>
  </defs>
  <g id="svg284677">
    <g id="surface32">
      <g id="chrY">
        <path id="path284568" class="cls-45" d="m2.66,10.25C1.46,10.25.25,7.75.25,5.25S1.46.25,2.66.25h4.83c1.21,0,2.41,2.5,2.41,5s-1.21,5-2.41,5H2.66Zm9.75,0c-1.25,0-2.5-2.5-2.5-5S11.16.25,12.41.25h16.9c1.25,0,2.5,2.5,2.5,5s-1.25,5-2.5,5"/>
        <g class="cls-35">
          <g id="g284576">
            <g class="cls-36">
              <g id="g284574">
                <g class="cls-2">
                  <g id="g284572">
                    <path id="path284570" class="cls-51" d="m.25,10.25h9.66V.25H.25v10Z"/>
                  </g>
                </g>
              </g>
            </g>
          </g>
        </g>
        <g class="cls-25">
          <g id="g284584">
            <g class="cls-1">
              <g id="g284582">
                <g class="cls-19">
                  <g id="g284580">
                    <path id="path284578" class="cls-42" d="m.25,10.25h1.29V.25H.25v10Z"/>
                  </g>
                </g>
              </g>
            </g>
          </g>
        </g>
        <g class="cls-3">
          <g id="g284592">
            <g class="cls-11">
              <g id="g284590">
                <g class="cls-37">
                  <g id="g284588">
                    <path id="path284586" class="cls-50" d="m1.54,10.25h1.29V.25h-1.29v10Z"/>
                  </g>
                </g>
              </g>
            </g>
          </g>
        </g>
        <g class="cls-4">
          <g id="g284600">
            <g class="cls-15">
              <g id="g284598">
                <g class="cls-26">
                  <g id="g284596">
                    <path id="path284594" class="cls-52" d="m2.83,10.25h6.44V.25H2.83v10Z"/>
                  </g>
                </g>
              </g>
            </g>
          </g>
        </g>
        <g class="cls-5">
          <g id="g284608">
            <g class="cls-7">
              <g id="g284606">
                <g class="cls-39">
                  <g id="g284604">
                    <path id="path284602" class="cls-47" d="m9.27,10.25h.64V.25h-.64v10Z"/>
                  </g>
                </g>
              </g>
            </g>
          </g>
        </g>
        <g class="cls-24">
          <g id="g284616">
            <g class="cls-23">
              <g id="g284614">
                <g class="cls-33">
                  <g id="g284612">
                    <path id="path284610" class="cls-43" d="m9.91,10.25h21.9V.25H9.91v10Z"/>
                  </g>
                </g>
              </g>
            </g>
          </g>
        </g>
        <g class="cls-12">
          <g id="g284624">
            <g class="cls-29">
              <g id="g284622">
                <g class="cls-31">
                  <g id="g284620">
                    <path id="path284618" class="cls-48" d="m9.91,10.25h1.29V.25h-1.29v10Z"/>
                  </g>
                </g>
              </g>
            </g>
          </g>
        </g>
        <g class="cls-9">
          <g id="g284632">
            <g class="cls-18">
              <g id="g284630">
                <g class="cls-32">
                  <g id="g284628">
                    <path id="path284626" class="cls-53" d="m11.2,10.25h1.13V.25h-1.13v10Z"/>
                  </g>
                </g>
              </g>
            </g>
          </g>
        </g>
        <g class="cls-20">
          <g id="g284640">
            <g class="cls-38">
              <g id="g284638">
                <g class="cls-21">
                  <g id="g284636">
                    <path id="path284634" class="cls-49" d="m12.33,10.25h2.73V.25h-2.73v10Z"/>
                  </g>
                </g>
              </g>
            </g>
          </g>
        </g>
        <g class="cls-13">
          <g id="g284648">
            <g class="cls-10">
              <g id="g284646">
                <g class="cls-27">
                  <g id="g284644">
                    <path id="path284642" class="cls-46" d="m15.06,10.25h1.45V.25h-1.45v10Z"/>
                  </g>
                </g>
              </g>
            </g>
          </g>
        </g>
        <g class="cls-40">
          <g id="g284656">
            <g class="cls-22">
              <g id="g284654">
                <g class="cls-6">
                  <g id="g284652">
                    <path id="path284650" class="cls-44" d="m16.52,10.25h2.41V.25h-2.41v10Z"/>
                  </g>
                </g>
              </g>
            </g>
          </g>
        </g>
        <g class="cls-28">
          <g id="g284664">
            <g class="cls-16">
              <g id="g284662">
                <g class="cls-17">
                  <g id="g284660">
                    <path id="path284658" class="cls-54" d="m18.93,10.25h1.61V.25h-1.61v10Z"/>
                  </g>
                </g>
              </g>
            </g>
          </g>
        </g>
        <g class="cls-8">
          <g id="g284672">
            <g class="cls-14">
              <g id="g284670">
                <g class="cls-34">
                  <g id="g284668">
                    <path id="path284666" class="cls-55" d="m20.54,10.25h11.28V.25h-11.28v10Z"/>
                  </g>
                </g>
              </g>
            </g>
          </g>
        </g>
        <path id="path284674" class="cls-41" d="m2.66,10.25C1.46,10.25.25,7.75.25,5.25S1.46.25,2.66.25h4.83c1.21,0,2.41,2.5,2.41,5s-1.21,5-2.41,5H2.66Zm9.75,0c-1.25,0-2.5-2.5-2.5-5S11.16.25,12.41.25h16.9c1.25,0,2.5,2.5,2.5,5s-1.25,5-2.5,5H12.41Z"/>
      </g>
    </g>
  </g>
</svg>