<svg>
    <path xmlns="http://www.w3.org/2000/svg" style="fill:none;stroke:#000000;stroke-width:0.5;stroke-linecap:butt;stroke-linejoin:miter;stroke-miterlimit:10;stroke-opacity:1" d="m 20,148.07422 c 0,1.25 2.5,2.5 5,2.5 2.5,0 5,-1.25 5,-2.5 V 89.644531 c 0,-1.25 -2.5,-2.5 -5,-2.5 -2.5,0 -5,1.25 -5,2.5 z m 0,-63.429689 c 0,1.25 2.5,2.5 5,2.5 2.5,0 5,-1.25 5,-2.5 V 22.5 C 30,21.25 27.5,20 25,20 c -2.5,0 -5,1.25 -5,2.5 z m 0,0" transform="matrix(1,0,0,-1,0,171)" id="path277822" inkscape:connector-curvature="0" xmlns:inkscape="http://www.inkscape.org/namespaces/inkscape"/>
</svg>